<?xml version="1.0" encoding="UTF-8"?>
<svg width="75px" height="75px" viewBox="0 0 75 75" version="1.1" xmlns="http://www.w3.org/2000/svg" xmlns:xlink="http://www.w3.org/1999/xlink">
    <!-- Generator: Sketch 46.1 (44463) - http://www.bohemiancoding.com/sketch -->
    <title>Planet</title>
    <desc>Created with Sketch.</desc>
    <defs></defs>
    <g id="Page-1" stroke="none" stroke-width="1" fill="none" fill-rule="evenodd">
        <g id="Planet" fill-rule="nonzero" fill="#7ED321">
            <g id="planet" transform="translate(1.000000, 14.000000)">
                <path d="M13.9180703,24.5276758 C14.6431836,36.6458984 24.6985117,46.25 36.9982656,46.25 C42.4842383,46.25 47.5227422,44.3382852 51.4875234,41.146457 C45.8496484,39.5371016 39.6015625,37.2777891 33.1788828,34.4876133 C26.1212773,31.4216719 19.5055039,27.9923789 13.9180703,24.5276758 Z" id="Shape"></path>
                <path d="M15.5199102,14.5440352 C21.2882969,18.4622773 28.8269023,22.512043 36.8641406,26.0034844 C43.1644023,28.7406172 49.4546914,30.9977617 55.0546992,32.5310937 C55.9935742,32.7882148 56.9096133,33.0233672 57.7990586,33.2368398 C58.0425938,32.7364727 58.2686406,32.2259883 58.4766211,31.7061094 C59.537625,29.0528047 60.1222539,26.1571211 60.1222539,23.125 C60.1222539,22.6538281 60.1065,22.1865586 60.07875,21.7223242 C59.3533477,9.60410156 49.2981641,0 36.9982656,0 C31.5124375,0 26.4739336,1.91171484 22.5092969,5.10354297 C19.8649531,7.23234375 17.6987188,9.93059766 16.1976172,13.0131602 C15.953793,13.5135273 15.7277461,14.0241563 15.5199102,14.5440352 Z" id="Shape"></path>
                <path d="M62.1003086,27.2486211 C61.9187773,28.9196914 61.7567578,29.2181484 61.248875,30.8178203 C63.6882734,32.557832 65.7339687,34.2440781 67.194457,35.7229219 C67.6692422,36.2039219 68.0435781,36.6226289 68.3379883,36.9806328 C68.0945977,36.9927734 67.8238906,36.9998555 67.5241328,36.9998555 C64.3609219,36.9998555 59.7156875,36.2049336 54.4439102,34.7613555 C48.7396953,33.1995508 42.3423086,30.9045391 35.9427539,28.1244805 C27.4253828,24.4244805 19.4433555,20.0970703 13.4666992,15.9394844 C10.7088984,14.020832 8.40420312,12.1490078 6.80192969,10.5267891 C6.32714453,10.0457891 5.95280859,9.62708203 5.65839844,9.26907812 C5.90164453,9.2569375 6.17235156,9.24985547 6.47239844,9.24985547 C8.68488281,9.24985547 11.6230586,9.63922266 14.9928047,10.3669375 C15.8346992,8.92104687 16.0014883,8.53124609 17.1120664,7.27266797 C13.3926992,5.92578125 9.62939453,4.98950781 6.4726875,4.625 C2.94569141,4.21771094 0.642296875,5.42295703 0.115625,7.10226562 C-1.48491406,12.2066758 13.7304687,23.5178359 34.100125,32.3666172 C47.7672891,38.3039609 60.2845625,41.625 67.5241328,41.625 C71.074543,41.625 73.3542344,40.827043 73.8809062,39.1475898 C74.7972344,36.2257461 70.3816602,32.375 62.1003086,27.2486211 Z" id="Shape"></path>
            </g>
        </g>
    </g>
</svg>