<?xml version="1.0" encoding="UTF-8"?>
<svg width="75px" height="75px" viewBox="0 0 75 75" version="1.1" xmlns="http://www.w3.org/2000/svg" xmlns:xlink="http://www.w3.org/1999/xlink">
    <!-- Generator: Sketch 46.1 (44463) - http://www.bohemiancoding.com/sketch -->
    <title>Gear</title>
    <desc>Created with Sketch.</desc>
    <defs></defs>
    <g id="Page-1" stroke="none" stroke-width="1" fill="none" fill-rule="evenodd">
        <g id="Gear" fill-rule="nonzero" fill="#F8E71C">
            <g id="Cog" transform="translate(3.000000, 2.000000)">
                <g id="g3027" transform="translate(34.522066, 35.474128) scale(-1, 1) rotate(-180.000000) translate(-34.522066, -35.474128) translate(0.022066, 0.974128)">
                    <path d="M45.9700716,34.4775537 C45.9700716,37.6499675 44.8477554,40.3584906 42.603123,42.603123 C40.3584906,44.8477554 37.6499675,45.9700716 34.4775537,45.9700716 C31.3051399,45.9700716 28.5966168,44.8477554 26.3519844,42.603123 C24.107352,40.3584906 22.9850358,37.6499675 22.9850358,34.4775537 C22.9850358,31.3051399 24.107352,28.5966168 26.3519844,26.3519844 C28.5966168,24.107352 31.3051399,22.9850358 34.4775537,22.9850358 C37.6499675,22.9850358 40.3584906,24.107352 42.603123,26.3519844 C44.8477554,28.5966168 45.9700716,31.3051399 45.9700716,34.4775537 Z M68.9551074,39.3708523 L68.9551074,29.4046845 C68.9551074,29.0455433 68.8353936,28.7013663 68.5959662,28.3721535 C68.3565387,28.0429408 68.0572544,27.848406 67.6981132,27.7885491 L59.3929733,26.531555 C58.8243331,24.9154196 58.2407287,23.553676 57.6421601,22.446324 C58.6896552,20.9499024 60.2908263,18.8848406 62.4456734,16.2511386 C62.7449577,15.8919974 62.8945999,15.517892 62.8945999,15.1288224 C62.8945999,14.7397528 62.7599219,14.3955758 62.490566,14.0962915 C61.6824984,12.9889395 60.201041,11.3728042 58.0461939,9.24788549 C55.8913468,7.12296682 54.4847105,6.06050748 53.826285,6.06050748 C53.4671438,6.06050748 53.0780742,6.19518543 52.6590761,6.46454131 L46.4638907,11.3129473 C45.1470397,10.6245934 43.785296,10.0559532 42.3786597,9.60702668 C41.8998048,5.53675992 41.4658426,2.75341574 41.0767729,1.25699414 C40.8672739,0.418998048 40.3285621,0 39.4606376,0 L29.4944697,0 C29.0754717,0 28.7088484,0.127195836 28.3945999,0.381587508 C28.0803513,0.63597918 27.9082628,0.957709824 27.8783344,1.34677944 L26.6213403,9.60702668 C25.1548471,10.0858816 23.8080677,10.6395576 22.581002,11.2680547 L16.2511386,6.46454131 C15.9518543,6.19518543 15.5777489,6.06050748 15.1288224,6.06050748 C14.7098243,6.06050748 14.3357189,6.22511386 14.0065062,6.55432661 C10.2355237,9.96616786 7.76642811,12.4801561 6.59921926,14.0962915 C6.38972023,14.3955758 6.28497072,14.7397528 6.28497072,15.1288224 C6.28497072,15.4879636 6.40468445,15.8321405 6.64411191,16.1613533 C7.09303839,16.7898504 7.8562134,17.7849707 8.93363696,19.1467144 C10.0110605,20.508458 10.8191282,21.5634353 11.3578399,22.3116461 C10.5497723,23.8080677 9.93623943,25.289525 9.51724138,26.7560182 L1.30188679,27.9681197 C0.912817176,28.0279766 0.59856864,28.2150293 0.359141184,28.5292778 C0.119713728,28.8435264 0,29.1951854 0,29.584255 L0,39.5504229 C0,39.9095641 0.119713728,40.2537411 0.359141184,40.5829538 C0.59856864,40.9121666 0.882888744,41.1067014 1.2121015,41.1665582 L9.56213403,42.4235524 C9.98113208,43.8002602 10.5647365,45.1769681 11.3129473,46.553676 C10.11581,48.2595966 8.51463891,50.3246584 6.50943396,52.7488614 C6.21014964,53.1080026 6.06050748,53.4671438 6.06050748,53.826285 C6.06050748,54.1255693 6.19518543,54.4697463 6.46454131,54.8588159 C7.24268055,55.9362394 8.71665582,57.5448926 10.8864671,59.6847755 C13.0562785,61.8246584 14.4703969,62.8945999 15.1288224,62.8945999 C15.517892,62.8945999 15.9069616,62.7449577 16.2960312,62.4456734 L22.4912167,57.6421601 C23.8080677,58.330514 25.1698113,58.8991542 26.5764476,59.3480807 C27.0553025,63.4183474 27.4892648,66.2016916 27.8783344,67.6981132 C28.0878334,68.5361093 28.6265452,68.9551074 29.4944697,68.9551074 L39.4606376,68.9551074 C39.8796357,68.9551074 40.2462589,68.8279115 40.5605075,68.5735198 C40.874756,68.3191282 41.0468445,67.9973975 41.0767729,67.6083279 L42.3337671,59.3480807 C43.8002602,58.8692258 45.1470397,58.3155498 46.3741054,57.6870527 L52.7488614,62.490566 C53.0182173,62.7599219 53.3773585,62.8945999 53.826285,62.8945999 C54.2153546,62.8945999 54.58946,62.7449577 54.9486012,62.4456734 C58.8093689,58.88419 61.2784645,56.3402733 62.3558881,54.8139232 C62.5653871,54.5744958 62.6701366,54.245283 62.6701366,53.826285 C62.6701366,53.4671438 62.5504229,53.1229668 62.3109954,52.7937541 C61.862069,52.165257 61.0988939,51.1701366 60.0214704,49.808393 C58.9440468,48.4466493 58.1359792,47.3916721 57.5972674,46.6434613 C58.3754066,45.1470397 58.9889395,43.6805465 59.437866,42.2439818 L67.6532206,40.9869876 C68.0422902,40.9271308 68.3565387,40.7400781 68.5959662,40.4258295 C68.8353936,40.111581 68.9551074,39.7599219 68.9551074,39.3708523 Z" id="path3029"></path>
                </g>
            </g>
        </g>
    </g>
</svg>