<?xml version="1.0" encoding="UTF-8"?>
<svg width="75px" height="75px" viewBox="0 0 75 75" version="1.1" xmlns="http://www.w3.org/2000/svg" xmlns:xlink="http://www.w3.org/1999/xlink">
    <!-- Generator: Sketch 46.1 (44463) - http://www.bohemiancoding.com/sketch -->
    <title>Robot</title>
    <desc>Created with Sketch.</desc>
    <defs></defs>
    <g id="Page-1" stroke="none" stroke-width="1" fill="none" fill-rule="evenodd">
        <g id="Robot" fill-rule="nonzero" fill="#000000">
            <g transform="translate(17.000000, 8.000000)" id="Shape">
                <path d="M13,18 C13.5522667,18 14,17.562 14,17.0217391 L14,15.9782609 C14,15.438 13.5522667,15 13,15 C12.4477333,15 12,15.438 12,15.9782609 L12,17.0217391 C12,17.562 12.4476,18 13,18 Z"></path>
                <path d="M28,18 C28.5522667,18 29,17.562 29,17.0217391 L29,15.9782609 C29,15.438 28.5522667,15 28,15 C27.4477333,15 27,15.438 27,15.9782609 L27,17.0217391 C27,17.562 27.4476,18 28,18 Z"></path>
                <path d="M39.041791,42.2111948 L39.041791,33.7411861 C40.1787761,33.3472381 41,32.2434805 41,30.9458874 C41,29.3191255 39.7097851,27.995671 38.1238806,27.995671 L33.9492239,27.995671 C35.274197,26.7233117 36.1044776,24.9153939 36.1044776,22.9112554 L36.1044776,12.8679654 C36.1044776,9.0260303 33.0573821,5.9004329 29.3119403,5.9004329 L26.3134328,5.9004329 L26.3134328,3.3752987 C26.825994,3.055671 27.1701493,2.47918615 27.1701493,1.82034632 C27.1701493,0.816645022 26.3740149,0 25.3955224,0 C24.4170299,0 23.6208955,0.816645022 23.6208955,1.82034632 C23.6208955,2.47918615 23.9650507,3.055671 24.4776119,3.3752987 L24.4776119,5.9004329 L16.5223881,5.9004329 L16.5223881,3.3752987 C17.0349493,3.055671 17.3791045,2.47918615 17.3791045,1.82034632 C17.3791045,0.816645022 16.5829701,0 15.6044776,0 C14.6259851,0 13.8298507,0.816645022 13.8298507,1.82034632 C13.8298507,2.47918615 14.174006,3.055671 14.6865672,3.3752987 L14.6865672,5.9004329 L11.6880597,5.9004329 C7.94261791,5.9004329 4.89552239,9.0260303 4.89552239,12.8679654 L4.89552239,22.9112554 C4.89552239,24.9153939 5.72580299,26.7233117 7.05077612,27.995671 L2.8761194,27.995671 C1.29021493,27.995671 0,29.3191255 0,30.9458874 C0,32.2434805 0.821223881,33.3472381 1.95820896,33.7411861 L1.95820896,42.2111948 C0.821223881,42.6051429 0,43.7089004 0,45.0064935 L0,47.0151515 C0,47.5351429 0.410979104,47.95671 0.917910448,47.95671 C1.42484179,47.95671 1.8358209,47.5351429 1.8358209,47.0151515 L1.8358209,45.0064935 C1.8358209,44.4180823 2.30248657,43.9393939 2.8761194,43.9393939 C3.44975224,43.9393939 3.91641791,44.4180823 3.91641791,45.0064935 L3.91641791,47.0151515 C3.91641791,47.5351429 4.32739701,47.95671 4.83432836,47.95671 C5.3412597,47.95671 5.75223881,47.5351429 5.75223881,47.0151515 L5.75223881,45.0064935 C5.75223881,43.7089004 4.93101493,42.6051429 3.79402985,42.2111948 L3.79402985,33.8961039 L7.83283582,33.8961039 L7.83283582,42.9978355 C7.83283582,44.6245974 9.12305075,45.9480519 10.7089552,45.9480519 L11.8605045,45.9480519 C12.0128776,46.5851732 12.3157881,47.1619091 12.728603,47.6364545 C12.728603,47.6385887 12.7282358,47.6407229 12.7282358,47.6428571 L12.7282358,52.0995671 L11.6880597,52.0995671 C9.02244776,52.0995671 6.85373134,54.3241558 6.85373134,57.0584416 C6.85373134,57.5784329 7.26471045,58 7.77164179,58 L18.541791,58 C19.0487224,58 19.4597015,57.5784329 19.4597015,57.0584416 L19.4597015,53.0411255 C19.4597015,52.5211342 19.0487224,52.0995671 18.541791,52.0995671 L18.480597,52.0995671 L18.480597,47.6428571 C18.480597,47.6407229 18.4803522,47.6385887 18.4802299,47.6364545 C18.8931672,47.1619091 19.1960776,46.5850476 19.3483284,45.9480519 L21.6515493,45.9480519 C21.8039224,46.5851732 22.1068328,47.1619091 22.5196478,47.6364545 C22.5196478,47.6385887 22.5192806,47.6407229 22.5192806,47.6428571 L22.5192806,52.0995671 L22.458209,52.0995671 C21.9512776,52.0995671 21.5402985,52.5211342 21.5402985,53.0411255 L21.5402985,57.0584416 C21.5402985,57.5784329 21.9512776,58 22.458209,58 L33.2283582,58 C33.7352896,58 34.1462687,57.5784329 34.1462687,57.0584416 C34.1462687,54.3241558 31.9775522,52.0995671 29.3119403,52.0995671 L28.2716418,52.0995671 L28.2716418,47.6428571 C28.2716418,47.6407229 28.271397,47.6385887 28.2712746,47.6364545 C28.6842119,47.1619091 28.9871224,46.5850476 29.1393731,45.9480519 L30.2910448,45.9480519 C31.8769493,45.9480519 33.1671642,44.6245974 33.1671642,42.9978355 L33.1671642,33.8961039 L37.2059701,33.8961039 L37.2059701,42.2111948 C36.0689851,42.6051429 35.2477612,43.7089004 35.2477612,45.0064935 L35.2477612,47.0151515 C35.2477612,47.5351429 35.6587403,47.95671 36.1656716,47.95671 C36.672603,47.95671 37.0835821,47.5351429 37.0835821,47.0151515 L37.0835821,45.0064935 C37.0835821,44.4180823 37.5502478,43.9393939 38.1238806,43.9393939 C38.6975134,43.9393939 39.1641791,44.4180823 39.1641791,45.0064935 L39.1641791,47.0151515 C39.1641791,47.5351429 39.5751582,47.95671 40.0820896,47.95671 C40.5890209,47.95671 41,47.5351429 41,47.0151515 L41,45.0064935 C41,43.7089004 40.1787761,42.6051429 39.041791,42.2111948 L39.041791,42.2111948 Z M38.1238806,32.012987 C37.5502478,32.012987 37.0835821,31.5342987 37.0835821,30.9458874 C37.0835821,30.3574762 37.5502478,29.8787879 38.1238806,29.8787879 C38.6975134,29.8787879 39.1641791,30.3574762 39.1641791,30.9458874 C39.1641791,31.5342987 38.6975134,32.012987 38.1238806,32.012987 Z M6.73134328,12.8679654 C6.73134328,10.064381 8.95488955,7.78354978 11.6880597,7.78354978 L29.3119403,7.78354978 C32.0451104,7.78354978 34.2686567,10.064381 34.2686567,12.8679654 L34.2686567,18.8939394 C34.2686567,19.9282727 32.2895194,20.9720216 30.5946896,21.5515195 C27.9118209,22.4688485 24.3268299,22.974026 20.5,22.974026 C16.6731701,22.974026 13.0880567,22.4688485 10.4053104,21.5515195 C8.7104806,20.9720216 6.73134328,19.9282727 6.73134328,18.8939394 L6.73134328,12.8679654 Z M6.73134328,22.9112554 L6.73134328,21.8418961 C7.46212239,22.362013 8.46288955,22.8723377 9.82470149,23.3380952 C12.689806,24.3176926 16.4810209,24.8571429 20.5,24.8571429 C24.5189791,24.8571429 28.310194,24.3176926 31.1752985,23.3379697 C32.5372328,22.8723377 33.5378776,22.3618874 34.2686567,21.8417706 L34.2686567,22.9111299 C34.2686567,25.7147143 32.0451104,27.9955455 29.3119403,27.9955455 L11.6880597,27.9955455 C8.95488955,27.995671 6.73134328,25.7148398 6.73134328,22.9112554 Z M2.8761194,29.8787879 C3.44975224,29.8787879 3.91641791,30.3574762 3.91641791,30.9458874 C3.91641791,31.5342987 3.44975224,32.012987 2.8761194,32.012987 C2.30248657,32.012987 1.8358209,31.5342987 1.8358209,30.9458874 C1.8358209,30.3574762 2.30248657,29.8787879 2.8761194,29.8787879 Z M5.55678507,32.012987 C5.68247761,31.6818095 5.75223881,31.3221342 5.75223881,30.9458874 C5.75223881,30.5696407 5.68247761,30.2099654 5.55678507,29.8787879 L7.83283582,29.8787879 L7.83283582,32.012987 L5.55678507,32.012987 Z M17.6238806,56.1168831 L8.83323582,56.1168831 C9.22181791,54.8799264 10.3547642,53.982684 11.6880597,53.982684 L17.6238806,53.982684 L17.6238806,56.1168831 Z M14.5641791,52.0995671 L14.5641791,48.8135281 C14.8953612,48.9089394 15.2440448,48.961039 15.6044776,48.961039 C15.9649104,48.961039 16.313594,48.9089394 16.6447761,48.8135281 L16.6447761,52.0995671 L14.5641791,52.0995671 Z M15.6044776,47.0779221 C14.8216836,47.0779221 14.1429194,46.6176883 13.8079433,45.9480519 L17.4008896,45.9480519 C17.0659134,46.6176883 16.3872716,47.0779221 15.6044776,47.0779221 Z M32.1667642,56.1168831 L23.3761194,56.1168831 L23.3761194,53.982684 L29.3119403,53.982684 C30.6452358,53.982684 31.7781821,54.8799264 32.1667642,56.1168831 Z M24.3552239,52.0995671 L24.3552239,48.8135281 C24.686406,48.9089394 25.0350896,48.961039 25.3955224,48.961039 C25.7559552,48.961039 26.1046388,48.9089394 26.4358209,48.8135281 L26.4358209,52.0995671 L24.3552239,52.0995671 Z M25.3955224,47.0779221 C24.6127284,47.0779221 23.9339642,46.6176883 23.5989881,45.9480519 L27.1919343,45.9480519 C26.8569582,46.6176883 26.1783164,47.0779221 25.3955224,47.0779221 Z M31.3313433,42.9978355 C31.3313433,43.5862468 30.8646776,44.0649351 30.2910448,44.0649351 L10.7089552,44.0649351 C10.1353224,44.0649351 9.66865672,43.5862468 9.66865672,42.9978355 L9.66865672,29.5644329 C10.3069104,29.7686883 10.9851851,29.8787879 11.6880597,29.8787879 L29.3119403,29.8787879 C30.0148149,29.8787879 30.6932119,29.7686883 31.3313433,29.5644329 L31.3313433,42.9978355 Z M33.1671642,29.8787879 L35.4432149,29.8787879 C35.3175224,30.2099654 35.2477612,30.5696407 35.2477612,30.9458874 C35.2477612,31.3221342 35.3175224,31.6818095 35.4432149,32.012987 L33.1671642,32.012987 L33.1671642,29.8787879 Z"></path>
                <path d="M22,33 C19.7944127,33 18,35.0187143 18,37.5 C18,39.9812857 19.7942857,42 22,42 C24.2057143,42 26,39.9812857 26,37.5 C26,35.0187143 24.2055873,33 22,33 Z M22,39.8571429 C20.8446984,39.8571429 19.9047619,38.7997143 19.9047619,37.5 C19.9047619,36.2002857 20.8445714,35.1428571 22,35.1428571 C23.1554286,35.1428571 24.0952381,36.2002857 24.0952381,37.5 C24.0952381,38.7997143 23.1553016,39.8571429 22,39.8571429 Z"></path>
                <path d="M14,34 C13.4477333,34 13,34.357234 13,34.7978723 L13,38.2021277 C13,38.642766 13.4477333,39 14,39 C14.5522667,39 15,38.642766 15,38.2021277 L15,34.7978723 C15,34.357234 14.5522667,34 14,34 Z"></path>
                <path d="M28,34 C27.4477333,34 27,34.357234 27,34.7978723 L27,38.2021277 C27,38.642766 27.4477333,39 28,39 C28.5522667,39 29,38.642766 29,38.2021277 L29,34.7978723 C29,34.357234 28.5522667,34 28,34 Z"></path>
            </g>
        </g>
    </g>
</svg>