<?xml version="1.0" encoding="UTF-8"?>
<svg width="70px" height="80px" viewBox="0 0 70 80" version="1.1" xmlns="http://www.w3.org/2000/svg" xmlns:xlink="http://www.w3.org/1999/xlink">
    <!-- Generator: Sketch 46.1 (44463) - http://www.bohemiancoding.com/sketch -->
    <title>Robot</title>
    <desc>Created with Sketch.</desc>
    <defs></defs>
    <g id="Page-1" stroke="none" stroke-width="1" fill="none" fill-rule="evenodd">
        <g id="Robot">
            <rect id="Rectangle" fill="#B9B9B9" x="14" y="9" width="43" height="31" rx="11"></rect>
            <rect id="Rectangle" fill="#B9B9B9" x="18" y="33" width="34" height="28"></rect>
            <rect id="Rectangle" fill="#B9B9B9" x="24" y="50" width="7" height="28"></rect>
            <rect id="Rectangle" fill="#B9B9B9" x="39" y="50" width="7" height="28"></rect>
            <rect id="Rectangle" fill="#B9B9B9" x="45" y="74" width="7" height="5"></rect>
            <rect id="Rectangle" fill="#B9B9B9" x="18" y="74" width="7" height="5"></rect>
            <rect id="Rectangle" fill="#B9B9B9" x="7" y="41" width="56" height="5"></rect>
            <g transform="translate(5.000000, 0.000000)" id="Shape" fill-rule="nonzero" fill="#000000">
                <path d="M19.0243902,24.8275862 C19.8325854,24.8275862 20.4878049,24.2234483 20.4878049,23.4782609 L20.4878049,22.0389805 C20.4878049,21.2937931 19.8325854,20.6896552 19.0243902,20.6896552 C18.2161951,20.6896552 17.5609756,21.2937931 17.5609756,22.0389805 L17.5609756,23.4782609 C17.5609756,24.2234483 18.216,24.8275862 19.0243902,24.8275862 Z"></path>
                <path d="M40.9756098,24.8275862 C41.7838049,24.8275862 42.4390244,24.2234483 42.4390244,23.4782609 L42.4390244,22.0389805 C42.4390244,21.2937931 41.7838049,20.6896552 40.9756098,20.6896552 C40.1674146,20.6896552 39.5121951,21.2937931 39.5121951,22.0389805 L39.5121951,23.4782609 C39.5121951,24.2234483 40.1672195,24.8275862 40.9756098,24.8275862 Z"></path>
                <path d="M57.1343284,58.2223377 L57.1343284,46.5395671 C58.798209,45.9961905 60,44.4737662 60,42.6839827 C60,40.4401732 58.1118806,38.6147186 55.7910448,38.6147186 L49.681791,38.6147186 C51.6207761,36.8597403 52.8358209,34.3660606 52.8358209,31.6017316 L52.8358209,17.7489177 C52.8358209,12.449697 48.3766567,8.13852814 42.8955224,8.13852814 L38.5074627,8.13852814 L38.5074627,4.65558442 C39.2575522,4.21471861 39.761194,3.4195671 39.761194,2.51082251 C39.761194,1.12640693 38.5961194,0 37.1641791,0 C35.7322388,0 34.5671642,1.12640693 34.5671642,2.51082251 C34.5671642,3.4195671 35.070806,4.21471861 35.8208955,4.65558442 L35.8208955,8.13852814 L24.1791045,8.13852814 L24.1791045,4.65558442 C24.929194,4.21471861 25.4328358,3.4195671 25.4328358,2.51082251 C25.4328358,1.12640693 24.2677612,0 22.8358209,0 C21.4038806,0 20.238806,1.12640693 20.238806,2.51082251 C20.238806,3.4195671 20.7424478,4.21471861 21.4925373,4.65558442 L21.4925373,8.13852814 L17.1044776,8.13852814 C11.6233433,8.13852814 7.1641791,12.449697 7.1641791,17.7489177 L7.1641791,31.6017316 C7.1641791,34.3660606 8.37922388,36.8597403 10.318209,38.6147186 L4.20895522,38.6147186 C1.8881194,38.6147186 0,40.4401732 0,42.6839827 C0,44.4737662 1.20179104,45.9961905 2.86567164,46.5395671 L2.86567164,58.2223377 C1.20179104,58.7657143 0,60.2881385 0,62.0779221 L0,64.8484848 C0,65.5657143 0.601432836,66.1471861 1.34328358,66.1471861 C2.08513433,66.1471861 2.68656716,65.5657143 2.68656716,64.8484848 L2.68656716,62.0779221 C2.68656716,61.2663203 3.36949254,60.6060606 4.20895522,60.6060606 C5.04841791,60.6060606 5.73134328,61.2663203 5.73134328,62.0779221 L5.73134328,64.8484848 C5.73134328,65.5657143 6.33277612,66.1471861 7.07462687,66.1471861 C7.81647761,66.1471861 8.41791045,65.5657143 8.41791045,64.8484848 L8.41791045,62.0779221 C8.41791045,60.2881385 7.2161194,58.7657143 5.55223881,58.2223377 L5.55223881,46.7532468 L11.4626866,46.7532468 L11.4626866,59.3073593 C11.4626866,61.5511688 13.350806,63.3766234 15.6716418,63.3766234 L17.3568358,63.3766234 C17.5798209,64.2554113 18.0231045,65.0509091 18.6272239,65.7054545 C18.6272239,65.7083983 18.6266866,65.711342 18.6266866,65.7142857 L18.6266866,71.8614719 L17.1044776,71.8614719 C13.2035821,71.8614719 10.0298507,74.9298701 10.0298507,78.7012987 C10.0298507,79.4185281 10.6312836,80 11.3731343,80 L27.1343284,80 C27.8761791,80 28.4776119,79.4185281 28.4776119,78.7012987 L28.4776119,73.1601732 C28.4776119,72.4429437 27.8761791,71.8614719 27.1343284,71.8614719 L27.0447761,71.8614719 L27.0447761,65.7142857 C27.0447761,65.711342 27.0444179,65.7083983 27.0442388,65.7054545 C27.6485373,65.0509091 28.0918209,64.2552381 28.3146269,63.3766234 L31.685194,63.3766234 C31.9081791,64.2554113 32.3514627,65.0509091 32.9555821,65.7054545 C32.9555821,65.7083983 32.9550448,65.711342 32.9550448,65.7142857 L32.9550448,71.8614719 L32.8656716,71.8614719 C32.1238209,71.8614719 31.5223881,72.4429437 31.5223881,73.1601732 L31.5223881,78.7012987 C31.5223881,79.4185281 32.1238209,80 32.8656716,80 L48.6268657,80 C49.3687164,80 49.9701493,79.4185281 49.9701493,78.7012987 C49.9701493,74.9298701 46.7964179,71.8614719 42.8955224,71.8614719 L41.3731343,71.8614719 L41.3731343,65.7142857 C41.3731343,65.711342 41.3727761,65.7083983 41.372597,65.7054545 C41.9768955,65.0509091 42.4201791,64.2552381 42.6429851,63.3766234 L44.3283582,63.3766234 C46.649194,63.3766234 48.5373134,61.5511688 48.5373134,59.3073593 L48.5373134,46.7532468 L54.4477612,46.7532468 L54.4477612,58.2223377 C52.7838806,58.7657143 51.5820896,60.2881385 51.5820896,62.0779221 L51.5820896,64.8484848 C51.5820896,65.5657143 52.1835224,66.1471861 52.9253731,66.1471861 C53.6672239,66.1471861 54.2686567,65.5657143 54.2686567,64.8484848 L54.2686567,62.0779221 C54.2686567,61.2663203 54.9515821,60.6060606 55.7910448,60.6060606 C56.6305075,60.6060606 57.3134328,61.2663203 57.3134328,62.0779221 L57.3134328,64.8484848 C57.3134328,65.5657143 57.9148657,66.1471861 58.6567164,66.1471861 C59.3985672,66.1471861 60,65.5657143 60,64.8484848 L60,62.0779221 C60,60.2881385 58.798209,58.7657143 57.1343284,58.2223377 L57.1343284,58.2223377 Z M55.7910448,44.1558442 C54.9515821,44.1558442 54.2686567,43.4955844 54.2686567,42.6839827 C54.2686567,41.872381 54.9515821,41.2121212 55.7910448,41.2121212 C56.6305075,41.2121212 57.3134328,41.872381 57.3134328,42.6839827 C57.3134328,43.4955844 56.6305075,44.1558442 55.7910448,44.1558442 Z M9.85074627,17.7489177 C9.85074627,13.8819048 13.1047164,10.7359307 17.1044776,10.7359307 L42.8955224,10.7359307 C46.8952836,10.7359307 50.1492537,13.8819048 50.1492537,17.7489177 L50.1492537,26.0606061 C50.1492537,27.4872727 47.2529552,28.9269264 44.7727164,29.7262338 C40.8465672,30.9915152 35.6002388,31.6883117 30,31.6883117 C24.3997612,31.6883117 19.1532537,30.9915152 15.2272836,29.7262338 C12.7470448,28.9269264 9.85074627,27.4872727 9.85074627,26.0606061 L9.85074627,17.7489177 Z M9.85074627,31.6017316 L9.85074627,30.1267532 C10.9201791,30.8441558 12.3847164,31.5480519 14.3776119,32.1904762 C18.5704478,33.541645 24.1185672,34.2857143 30,34.2857143 C35.8814328,34.2857143 41.4295522,33.541645 45.6223881,32.190303 C47.6154627,31.5480519 49.0798209,30.8439827 50.1492537,30.1265801 L50.1492537,31.6015584 C50.1492537,35.4685714 46.8952836,38.6145455 42.8955224,38.6145455 L17.1044776,38.6145455 C13.1047164,38.6147186 9.85074627,35.4687446 9.85074627,31.6017316 Z M4.20895522,41.2121212 C5.04841791,41.2121212 5.73134328,41.872381 5.73134328,42.6839827 C5.73134328,43.4955844 5.04841791,44.1558442 4.20895522,44.1558442 C3.36949254,44.1558442 2.68656716,43.4955844 2.68656716,42.6839827 C2.68656716,41.872381 3.36949254,41.2121212 4.20895522,41.2121212 Z M8.1318806,44.1558442 C8.3158209,43.6990476 8.41791045,43.2029437 8.41791045,42.6839827 C8.41791045,42.1650216 8.3158209,41.6689177 8.1318806,41.2121212 L11.4626866,41.2121212 L11.4626866,44.1558442 L8.1318806,44.1558442 Z M25.7910448,77.4025974 L12.9266866,77.4025974 C13.4953433,75.6964502 15.1533134,74.4588745 17.1044776,74.4588745 L25.7910448,74.4588745 L25.7910448,77.4025974 Z M21.3134328,71.8614719 L21.3134328,67.3290043 C21.7980896,67.4606061 22.3083582,67.5324675 22.8358209,67.5324675 C23.3632836,67.5324675 23.8735522,67.4606061 24.358209,67.3290043 L24.358209,71.8614719 L21.3134328,71.8614719 Z M22.8358209,64.9350649 C21.6902687,64.9350649 20.6969552,64.3002597 20.2067463,63.3766234 L25.4647164,63.3766234 C24.9745075,64.3002597 23.9813731,64.9350649 22.8358209,64.9350649 Z M47.0733134,77.4025974 L34.2089552,77.4025974 L34.2089552,74.4588745 L42.8955224,74.4588745 C44.8466866,74.4588745 46.5046567,75.6964502 47.0733134,77.4025974 Z M35.641791,71.8614719 L35.641791,67.3290043 C36.1264478,67.4606061 36.6367164,67.5324675 37.1641791,67.5324675 C37.6916418,67.5324675 38.2019104,67.4606061 38.6865672,67.3290043 L38.6865672,71.8614719 L35.641791,71.8614719 Z M37.1641791,64.9350649 C36.0186269,64.9350649 35.0253134,64.3002597 34.5351045,63.3766234 L39.7930746,63.3766234 C39.3028657,64.3002597 38.3097313,64.9350649 37.1641791,64.9350649 Z M45.8507463,59.3073593 C45.8507463,60.118961 45.1678209,60.7792208 44.3283582,60.7792208 L15.6716418,60.7792208 C14.8321791,60.7792208 14.1492537,60.118961 14.1492537,59.3073593 L14.1492537,40.7785281 C15.0832836,41.0602597 16.0758806,41.2121212 17.1044776,41.2121212 L42.8955224,41.2121212 C43.9241194,41.2121212 44.9168955,41.0602597 45.8507463,40.7785281 L45.8507463,59.3073593 Z M48.5373134,41.2121212 L51.8681194,41.2121212 C51.6841791,41.6689177 51.5820896,42.1650216 51.5820896,42.6839827 C51.5820896,43.2029437 51.6841791,43.6990476 51.8681194,44.1558442 L48.5373134,44.1558442 L48.5373134,41.2121212 Z"></path>
                <path d="M32.195122,45.5172414 C28.9674332,45.5172414 26.3414634,48.3016749 26.3414634,51.7241379 C26.3414634,55.146601 28.9672474,57.9310345 32.195122,57.9310345 C35.4229965,57.9310345 38.0487805,55.146601 38.0487805,51.7241379 C38.0487805,48.3016749 35.4228107,45.5172414 32.195122,45.5172414 Z M32.195122,54.9753695 C30.5044367,54.9753695 29.1289199,53.5168473 29.1289199,51.7241379 C29.1289199,49.9314286 30.5042509,48.4729064 32.195122,48.4729064 C33.885993,48.4729064 35.261324,49.9314286 35.261324,51.7241379 C35.261324,53.5168473 33.8858072,54.9753695 32.195122,54.9753695 Z"></path>
                <path d="M20.4878049,46.8965517 C19.6796098,46.8965517 19.0243902,47.3892883 19.0243902,47.9970653 L19.0243902,52.6925899 C19.0243902,53.3003668 19.6796098,53.7931034 20.4878049,53.7931034 C21.296,53.7931034 21.9512195,53.3003668 21.9512195,52.6925899 L21.9512195,47.9970653 C21.9512195,47.3892883 21.296,46.8965517 20.4878049,46.8965517 Z"></path>
                <path d="M40.9756098,46.8965517 C40.1674146,46.8965517 39.5121951,47.3892883 39.5121951,47.9970653 L39.5121951,52.6925899 C39.5121951,53.3003668 40.1674146,53.7931034 40.9756098,53.7931034 C41.7838049,53.7931034 42.4390244,53.3003668 42.4390244,52.6925899 L42.4390244,47.9970653 C42.4390244,47.3892883 41.7838049,46.8965517 40.9756098,46.8965517 Z"></path>
            </g>
        </g>
    </g>
</svg>