<?xml version="1.0" encoding="UTF-8"?>
<svg width="75px" height="75px" viewBox="0 0 75 75" version="1.1" xmlns="http://www.w3.org/2000/svg" xmlns:xlink="http://www.w3.org/1999/xlink">
    <!-- Generator: Sketch 46.1 (44463) - http://www.bohemiancoding.com/sketch -->
    <title>Custom Preset</title>
    <desc>Created with Sketch.</desc>
    <defs></defs>
    <g id="Page-1" stroke="none" stroke-width="1" fill="none" fill-rule="evenodd">
        <g id="Custom-Preset" fill-rule="nonzero" fill="#000000">
            <g id="Robot" transform="translate(11.000000, 0.000000)">
                <path d="M16,23 C16.5522667,23 17,22.416 17,21.6956522 L17,20.3043478 C17,19.584 16.5522667,19 16,19 C15.4477333,19 15,19.584 15,20.3043478 L15,21.6956522 C15,22.416 15.4476,23 16,23 Z" id="Shape"></path>
                <path d="M36,23 C36.5522667,23 37,22.416 37,21.6956522 L37,20.3043478 C37,19.584 36.5522667,19 36,19 C35.4477333,19 35,19.584 35,20.3043478 L35,21.6956522 C35,22.416 35.4476,23 36,23 Z" id="Shape"></path>
                <path d="M50.4686567,54.5834416 L50.4686567,43.6308442 C51.9384179,43.1214286 53,41.6941558 53,40.0162338 C53,37.9126623 51.3321612,36.2012987 49.2820896,36.2012987 L43.8855821,36.2012987 C45.5983522,34.5560065 46.6716418,32.2181818 46.6716418,29.6266234 L46.6716418,16.6396104 C46.6716418,11.6715909 42.7327134,7.62987013 37.8910448,7.62987013 L34.0149254,7.62987013 L34.0149254,4.36461039 C34.6775045,3.9512987 35.1223881,3.20584416 35.1223881,2.3538961 C35.1223881,1.05600649 34.0932388,0 32.8283582,0 C31.5634776,0 30.5343284,1.05600649 30.5343284,2.3538961 C30.5343284,3.20584416 30.9792119,3.9512987 31.641791,4.36461039 L31.641791,7.62987013 L21.358209,7.62987013 L21.358209,4.36461039 C22.0207881,3.9512987 22.4656716,3.20584416 22.4656716,2.3538961 C22.4656716,1.05600649 21.4365224,0 20.1716418,0 C18.9067612,0 17.8776119,1.05600649 17.8776119,2.3538961 C17.8776119,3.20584416 18.3224955,3.9512987 18.9850746,4.36461039 L18.9850746,7.62987013 L15.1089552,7.62987013 C10.2672866,7.62987013 6.32835821,11.6715909 6.32835821,16.6396104 L6.32835821,29.6266234 C6.32835821,32.2181818 7.40164776,34.5560065 9.11441791,36.2012987 L3.71791045,36.2012987 C1.66783881,36.2012987 0,37.9126623 0,40.0162338 C0,41.6941558 1.06158209,43.1214286 2.53134328,43.6308442 L2.53134328,54.5834416 C1.06158209,55.0928571 0,56.5201299 0,58.1980519 L0,60.7954545 C0,61.4678571 0.531265672,62.012987 1.18656716,62.012987 C1.84186866,62.012987 2.37313433,61.4678571 2.37313433,60.7954545 L2.37313433,58.1980519 C2.37313433,57.4371753 2.97638507,56.8181818 3.71791045,56.8181818 C4.45943582,56.8181818 5.06268657,57.4371753 5.06268657,58.1980519 L5.06268657,60.7954545 C5.06268657,61.4678571 5.59395224,62.012987 6.24925373,62.012987 C6.90455522,62.012987 7.4358209,61.4678571 7.4358209,60.7954545 L7.4358209,58.1980519 C7.4358209,56.5201299 6.37423881,55.0928571 4.90447761,54.5834416 L4.90447761,43.8311688 L10.1253731,43.8311688 L10.1253731,55.6006494 C10.1253731,57.7042208 11.7932119,59.4155844 13.8432836,59.4155844 L15.3318716,59.4155844 C15.5288418,60.2394481 15.920409,60.9852273 16.4540478,61.5988636 C16.4540478,61.6016234 16.4535731,61.6043831 16.4535731,61.6071429 L16.4535731,67.3701299 L15.1089552,67.3701299 C11.6631642,67.3701299 8.85970149,70.2467532 8.85970149,73.7824675 C8.85970149,74.4548701 9.39096716,75 10.0462687,75 L23.9686567,75 C24.6239582,75 25.1552239,74.4548701 25.1552239,73.7824675 L25.1552239,68.5876623 C25.1552239,67.9152597 24.6239582,67.3701299 23.9686567,67.3701299 L23.8895522,67.3701299 L23.8895522,61.6071429 C23.8895522,61.6043831 23.8892358,61.6016234 23.8890776,61.5988636 C24.4228746,60.9852273 24.8144418,60.2392857 25.0112537,59.4155844 L27.9885881,59.4155844 C28.1855582,60.2394481 28.5771254,60.9852273 29.1107642,61.5988636 C29.1107642,61.6016234 29.1102896,61.6043831 29.1102896,61.6071429 L29.1102896,67.3701299 L29.0313433,67.3701299 C28.3760418,67.3701299 27.8447761,67.9152597 27.8447761,68.5876623 L27.8447761,73.7824675 C27.8447761,74.4548701 28.3760418,75 29.0313433,75 L42.9537313,75 C43.6090328,75 44.1402985,74.4548701 44.1402985,73.7824675 C44.1402985,70.2467532 41.3368358,67.3701299 37.8910448,67.3701299 L36.5462687,67.3701299 L36.5462687,61.6071429 C36.5462687,61.6043831 36.5459522,61.6016234 36.545794,61.5988636 C37.079591,60.9852273 37.4711582,60.2392857 37.6679701,59.4155844 L39.1567164,59.4155844 C41.2067881,59.4155844 42.8746269,57.7042208 42.8746269,55.6006494 L42.8746269,43.8311688 L48.0955224,43.8311688 L48.0955224,54.5834416 C46.6257612,55.0928571 45.5641791,56.5201299 45.5641791,58.1980519 L45.5641791,60.7954545 C45.5641791,61.4678571 46.0954448,62.012987 46.7507463,62.012987 C47.4060478,62.012987 47.9373134,61.4678571 47.9373134,60.7954545 L47.9373134,58.1980519 C47.9373134,57.4371753 48.5405642,56.8181818 49.2820896,56.8181818 C50.0236149,56.8181818 50.6268657,57.4371753 50.6268657,58.1980519 L50.6268657,60.7954545 C50.6268657,61.4678571 51.1581313,62.012987 51.8134328,62.012987 C52.4687343,62.012987 53,61.4678571 53,60.7954545 L53,58.1980519 C53,56.5201299 51.9384179,55.0928571 50.4686567,54.5834416 L50.4686567,54.5834416 Z M49.2820896,41.3961039 C48.5405642,41.3961039 47.9373134,40.7771104 47.9373134,40.0162338 C47.9373134,39.2553571 48.5405642,38.6363636 49.2820896,38.6363636 C50.0236149,38.6363636 50.6268657,39.2553571 50.6268657,40.0162338 C50.6268657,40.7771104 50.0236149,41.3961039 49.2820896,41.3961039 Z M8.70149254,16.6396104 C8.70149254,13.0142857 11.5758328,10.0649351 15.1089552,10.0649351 L37.8910448,10.0649351 C41.4241672,10.0649351 44.2985075,13.0142857 44.2985075,16.6396104 L44.2985075,24.4318182 C44.2985075,25.7693182 41.7401104,27.1189935 39.5492328,27.8683442 C36.0811343,29.0545455 31.4468776,29.7077922 26.5,29.7077922 C21.5531224,29.7077922 16.9187075,29.0545455 13.4507672,27.8683442 C11.2598896,27.1189935 8.70149254,25.7693182 8.70149254,24.4318182 L8.70149254,16.6396104 Z M8.70149254,29.6266234 L8.70149254,28.2438312 C9.64615821,28.9163961 10.9398328,29.5762987 12.7002239,30.1785714 C16.4038955,31.4452922 21.3047343,32.1428571 26.5,32.1428571 C31.6952657,32.1428571 36.5961045,31.4452922 40.2997761,30.1784091 C42.0603254,29.5762987 43.3538418,28.9162338 44.2985075,28.2436688 L44.2985075,29.626461 C44.2985075,33.2517857 41.4241672,36.2011364 37.8910448,36.2011364 L15.1089552,36.2011364 C11.5758328,36.2012987 8.70149254,33.2519481 8.70149254,29.6266234 Z M3.71791045,38.6363636 C4.45943582,38.6363636 5.06268657,39.2553571 5.06268657,40.0162338 C5.06268657,40.7771104 4.45943582,41.3961039 3.71791045,41.3961039 C2.97638507,41.3961039 2.37313433,40.7771104 2.37313433,40.0162338 C2.37313433,39.2553571 2.97638507,38.6363636 3.71791045,38.6363636 Z M7.18316119,41.3961039 C7.34564179,40.9678571 7.4358209,40.5027597 7.4358209,40.0162338 C7.4358209,39.5297078 7.34564179,39.0646104 7.18316119,38.6363636 L10.1253731,38.6363636 L10.1253731,41.3961039 L7.18316119,41.3961039 Z M22.7820896,72.5649351 L11.4185731,72.5649351 C11.9208866,70.9654221 13.3854269,69.8051948 15.1089552,69.8051948 L22.7820896,69.8051948 L22.7820896,72.5649351 Z M18.8268657,67.3701299 L18.8268657,63.1209416 C19.2549791,63.2443182 19.7057164,63.3116883 20.1716418,63.3116883 C20.6375672,63.3116883 21.0883045,63.2443182 21.5164179,63.1209416 L21.5164179,67.3701299 L18.8268657,67.3701299 Z M20.1716418,60.8766234 C19.1597373,60.8766234 18.2823104,60.2814935 17.8492925,59.4155844 L22.4938328,59.4155844 C22.0608149,60.2814935 21.1835463,60.8766234 20.1716418,60.8766234 Z M41.5814269,72.5649351 L30.2179104,72.5649351 L30.2179104,69.8051948 L37.8910448,69.8051948 C39.6145731,69.8051948 41.0791134,70.9654221 41.5814269,72.5649351 Z M31.4835821,67.3701299 L31.4835821,63.1209416 C31.9116955,63.2443182 32.3624328,63.3116883 32.8283582,63.3116883 C33.2942836,63.3116883 33.7450209,63.2443182 34.1731343,63.1209416 L34.1731343,67.3701299 L31.4835821,67.3701299 Z M32.8283582,60.8766234 C31.8164537,60.8766234 30.9390269,60.2814935 30.506009,59.4155844 L35.1505493,59.4155844 C34.7175313,60.2814935 33.8402627,60.8766234 32.8283582,60.8766234 Z M40.5014925,55.6006494 C40.5014925,56.361526 39.8982418,56.9805195 39.1567164,56.9805195 L13.8432836,56.9805195 C13.1017582,56.9805195 12.4985075,56.361526 12.4985075,55.6006494 L12.4985075,38.2298701 C13.3235672,38.4939935 14.2003612,38.6363636 15.1089552,38.6363636 L37.8910448,38.6363636 C38.7996388,38.6363636 39.676591,38.4939935 40.5014925,38.2298701 L40.5014925,55.6006494 Z M42.8746269,38.6363636 L45.8168388,38.6363636 C45.6543582,39.0646104 45.5641791,39.5297078 45.5641791,40.0162338 C45.5641791,40.5027597 45.6543582,40.9678571 45.8168388,41.3961039 L42.8746269,41.3961039 L42.8746269,38.6363636 Z" id="Shape"></path>
                <path d="M28,43 C25.2430159,43 23,45.4673175 23,48.5 C23,51.5326825 25.2428571,54 28,54 C30.7571429,54 33,51.5326825 33,48.5 C33,45.4673175 30.7569841,43 28,43 Z M28,51.3809524 C26.555873,51.3809524 25.3809524,50.0885397 25.3809524,48.5 C25.3809524,46.9114603 26.5557143,45.6190476 28,45.6190476 C29.4442857,45.6190476 30.6190476,46.9114603 30.6190476,48.5 C30.6190476,50.0885397 29.444127,51.3809524 28,51.3809524 Z" id="Shape"></path>
                <path d="M18,44 C17.4477333,44 17,44.5001277 17,45.1170213 L17,49.8829787 C17,50.4998723 17.4477333,51 18,51 C18.5522667,51 19,50.4998723 19,49.8829787 L19,45.1170213 C19,44.5001277 18.5522667,44 18,44 Z" id="Shape"></path>
                <path d="M36,44 C35.4477333,44 35,44.5001277 35,45.1170213 L35,49.8829787 C35,50.4998723 35.4477333,51 36,51 C36.5522667,51 37,50.4998723 37,49.8829787 L37,45.1170213 C37,44.5001277 36.5522667,44 36,44 Z" id="Shape"></path>
            </g>
        </g>
    </g>
</svg>